<?xml version="1.0" encoding="UTF-8"?>
<svg xmlns="http://www.w3.org/2000/svg" width="1024" height="1024" viewBox="0 0 1024 1024" role="img" aria-labelledby="title desc">
  <title id="title">HomeBook symbol</title>
  <desc id="desc">Transparent vector symbol combining a house, an open book and a yen sign.</desc>
  <defs>
    <linearGradient id="homebookBlue" x1="260" y1="160" x2="770" y2="880" gradientUnits="userSpaceOnUse">
      <stop offset="0" stop-color="#A9BCD6"/>
      <stop offset="0.52" stop-color="#7E99C0"/>
      <stop offset="1" stop-color="#5876A8"/>
    </linearGradient>
  </defs>
  <!-- One unified filled vector path: no overlapping strokes, masks or filters. -->
  <path fill="url(#homebookBlue)" fill-rule="nonzero" d="M 511.5332 156.37109 C 499.86474 156.38599 488.30013 160.73114 479.51562 169.51562 L 479.6875 169.3457 L 201.6875 436.3457 A 12 12 0 0 0 200.81055 437.79688 A 12 12 0 0 0 199.22852 440.41406 A 12 12 0 0 0 198.44141 443.35547 A 12 12 0 0 0 198 445 A 12 12 0 0 0 198.37891 446.41406 A 12 12 0 0 0 199.16602 449.35547 A 12 12 0 0 0 200.64258 452.03516 A 12 12 0 0 0 201.3457 453.3125 A 12 12 0 0 0 202.79688 454.18945 A 12 12 0 0 0 205.41406 455.77148 A 12 12 0 0 0 208.35547 456.55859 A 12 12 0 0 0 210 457 L 275 457 C 279.03846 457 280.80147 458.02022 281.89062 459.10938 C 282.97979 460.19854 284 461.96154 284 466 L 284 699 C 284 711.59524 287.72103 722.76735 295.0957 730.68164 C 302.47038 738.59593 312.28282 742.79955 322.94531 745.60547 A 12.0012 12.0012 0 0 0 324.2207 745.86719 C 384.62047 754.92715 441.40793 761.48326 482.65625 733.98438 A 12.0012 12.0012 0 0 0 482.77539 733.9043 C 495.27449 725.35228 504.83951 715.28456 512 704.30664 C 519.16049 715.28456 528.72551 725.35228 541.22461 733.9043 A 12.0012 12.0012 0 0 0 541.34375 733.98438 C 582.59207 761.48325 639.37953 754.92715 699.7793 745.86719 A 12.0012 12.0012 0 0 0 701.05469 745.60547 C 711.71718 742.79955 721.52962 738.59593 728.9043 730.68164 C 736.27897 722.76732 740 711.59524 740 699 L 740 476 C 740 471.28571 741.16911 469.21002 742.25195 468.08984 C 743.33479 466.96966 744.96154 466 749 466 L 806 466 C 816.25 466 826.81677 463.67795 831.80664 453.3418 C 834.30157 448.17372 833.93935 441.97811 832.02734 437.25977 C 830.11671 432.54482 827.02005 428.74112 823.11719 425.16211 L 823.11328 425.1582 L 737.11719 346.16211 A 12.0012 12.0012 0 0 0 737.07227 346.12109 C 726.82232 336.80297 724 333.8 724 322 L 724 222 C 724 215.5 721.82235 208.99561 717.34961 204.25977 C 712.87687 199.52393 706.35714 197 700 197 L 670 197 C 663.27778 197 656.47696 198.83408 650.98242 203.37305 C 645.67675 207.75598 642.31579 214.88724 642.08594 222.22461 A 12 12 0 0 0 642.00781 222.55664 C 642.00349 222.67342 642.01541 222.78387 642.01172 222.90039 C 642.01158 222.93402 642 222.96637 642 223 A 12 12 0 0 0 642.01172 223.04688 C 641.52713 239.56002 647.39595 253.55394 652.44727 266.49023 C 657.54936 279.55658 662 291.625 662 305 C 662 320.66667 658.1033 329.2523 650.60156 336.19141 C 643.09982 343.13051 630.4839 348.47748 612.52734 352.25781 L 612.73438 352.2168 C 581.7473 358.17585 564.0048 382.31173 548.60547 409.00391 A 12.0012 12.0012 0 0 0 548.56445 409.07422 L 502.56445 490.07422 A 12 12 0 0 0 507.07422 506.43555 A 12 12 0 0 0 523.43555 501.92578 L 569.39453 420.99609 L 569.40625 420.97656 C 584.00149 395.68118 596.25862 379.82301 617.26562 375.7832 A 12.0012 12.0012 0 0 0 617.47266 375.74219 C 637.5161 371.52252 654.40018 365.36949 666.89844 353.80859 C 679.3967 342.24766 686 325.33333 686 305 C 686 286.375 679.95064 270.94342 674.80273 257.75977 C 669.65483 244.57612 665.61184 233.7127 665.99219 223.44336 A 12 12 0 0 0 665.97656 223.08398 A 12 12 0 0 0 666 223 C 666 221.61111 666.0121 222.08799 666.26758 221.87695 C 666.52304 221.66592 667.72222 221 670 221 L 699.92188 221 C 699.89418 220.9318 700 220.80939 700 222 L 700 322 C 700 340.2 709.17775 353.1971 720.92773 363.87891 L 805.9707 442 L 749 442 C 740.03846 442 731.16521 445.03034 724.99805 451.41016 C 718.83089 457.78998 716 466.71429 716 476 L 716 699 C 716 707.40476 714.22103 711.23265 711.3457 714.31836 C 708.53295 717.33693 703.46178 720.07037 695.43945 722.24219 C 636.2133 731.08823 585.33139 734.41965 554.71094 714.04883 C 539.28062 703.47386 530.39619 691.39946 524.93945 677.38281 A 12 12 0 0 0 525 677 L 525 639 L 598 639 C 606.96154 639 615.42904 636.10957 621.55273 630.4082 C 627.67643 624.70683 631 616.40909 631 608 C 631 599.59091 627.67643 591.29317 621.55273 585.5918 C 618.08161 582.36006 613.84155 580.06523 609.20117 578.6543 C 614.2379 577.28349 618.83177 574.87255 622.55273 571.4082 C 628.67643 565.70683 632 557.40909 632 549 C 632 540.59091 628.49772 532.2048 622.21094 526.78516 C 615.92415 521.36551 607.65385 519 599 519 L 560.0625 519 L 639.71875 409.03906 A 12 12 0 0 0 637.03906 392.28125 A 12 12 0 0 0 628.10547 390.15039 A 12 12 0 0 0 620.28125 394.96094 L 528.28125 521.96094 A 12 12 0 0 0 527.82227 535.12891 A 12 12 0 0 0 539 543 L 599 543 C 603.34615 543 605.57585 544.13449 606.53906 544.96484 C 607.50228 545.7952 608 546.40909 608 549 C 608 551.59091 607.32357 552.79317 606.19727 553.8418 C 605.07096 554.89043 603.03846 556 599 556 L 525 556 L 525 531 A 12 12 0 0 0 513 519 A 12 12 0 0 0 501 531 L 501 556 L 426 556 C 422.33333 556 420.41714 554.99968 419.49219 554.17383 C 418.56723 553.34798 418 552.59091 418 550 C 418 547.04545 418.80376 545.57232 419.64453 544.69922 C 420.4853 543.82611 421.66667 543 425 543 L 487 543 A 12 12 0 0 0 495.64062 539.25 A 12 12 0 0 0 497.27734 522.38867 L 392.8457 395.08008 C 390.72301 391.81799 389.09667 387.83329 388.79492 385.23828 C 388.50502 382.74506 388.62451 382.26391 389.80664 381.17188 C 389.9017 381.14736 390.417 381.06315 391.99805 381.56445 C 394.30355 382.29546 397.70653 384.49956 400.29492 388.05859 A 12 12 0 0 0 417.05859 390.70508 A 12 12 0 0 0 419.70508 373.94141 C 414.29347 366.50044 407.19645 361.20454 399.25195 358.68555 C 397.26583 358.0558 395.16235 357.61441 393.00977 357.40234 C 386.55202 356.76614 379.65692 358.20395 374.19141 362.88867 A 12.0012 12.0012 0 0 0 374.02734 363.03125 C 366.45523 369.76201 364.01452 379.92288 364.95508 388.01172 C 365.89564 396.10056 369.21914 402.96151 373.01562 408.65625 A 12.0012 12.0012 0 0 0 373.72266 409.61133 L 463.45508 519 L 425 519 C 416.33333 519 408.0147 522.17389 402.35547 528.05078 C 396.69624 533.92768 394 541.95455 394 550 C 394 558.40909 397.43277 566.65202 403.50781 572.07617 C 406.87087 575.0789 410.86045 577.15515 415.15625 578.4375 C 410.25243 579.90431 405.80594 582.4676 402.35547 586.05078 C 396.69624 591.92768 394 599.95455 394 608 C 394 624.81818 408.66667 639 426 639 L 501 639 L 501 672.62109 A 12 12 0 0 0 500.61523 673.20508 C 495.33906 689.03361 486.2398 702.43186 469.28906 714.04883 C 438.66861 734.41965 387.7867 731.08823 328.56055 722.24219 C 320.53822 720.07037 315.46705 717.33693 312.6543 714.31836 C 309.77897 711.23268 308 707.40476 308 699 L 308 466 C 308 457.03846 305.02022 448.30147 298.85938 442.14062 C 292.69854 435.97979 283.96154 433 275 433 L 239.81836 433 L 496.3125 186.6543 A 12.0012 12.0012 0 0 0 496.48438 186.48438 C 504.9083 178.06046 518.1952 177.86778 527.80859 186.77344 L 624.60352 281.57227 A 12 12 0 0 0 641.57227 281.39648 A 12 12 0 0 0 641.39648 264.42773 L 544.39648 169.42773 A 12.0012 12.0012 0 0 0 544.16602 169.20703 C 534.97366 160.67127 523.20166 156.35622 511.5332 156.37109 z M 245 485 A 12 12 0 0 0 233 497 L 233 779 A 12.0012 12.0012 0 0 0 245.5 790.99023 C 316.08701 788.04911 380.22063 797.86894 436.25 822.01953 A 12 12 0 0 0 452.01953 815.75 A 12 12 0 0 0 445.75 799.98047 C 389.21608 775.6124 325.59934 765.32574 257 766.77148 L 257 497 A 12 12 0 0 0 245 485 z M 779 485 A 12 12 0 0 0 767 497 L 767 766.77148 C 698.40066 765.32574 634.78392 775.6124 578.25 799.98047 A 12 12 0 0 0 571.98047 815.75 A 12 12 0 0 0 587.75 822.01953 C 643.77937 797.86894 707.91299 788.04911 778.5 790.99023 A 12.0012 12.0012 0 0 0 791 779 L 791 497 A 12 12 0 0 0 779 485 z M 193 509 A 12 12 0 0 0 181 521 L 181 814 C 181 823.63333 183.77845 832.99719 190.39062 839.60938 C 197.00281 846.22156 206.36667 849 216 849 L 459.50586 849 C 471.96539 866.55077 491.51914 876 512 876 C 532.48086 876 552.03461 866.55077 564.49414 849 L 808 849 C 817.63333 849 826.99719 846.22156 833.60938 839.60938 C 840.22156 832.9972 843 823.63333 843 814 L 843 521 A 12 12 0 0 0 831 509 A 12 12 0 0 0 819 521 L 819 814 C 819 819.36667 817.77844 821.50281 816.64062 822.64062 C 815.50281 823.77845 813.36667 825 808 825 L 558 825 A 12.0012 12.0012 0 0 0 547.50977 831.17188 C 539.48899 845.60928 527.21053 852 512 852 C 496.78947 852 484.51101 845.60928 476.49023 831.17188 A 12.0012 12.0012 0 0 0 466 825 L 216 825 C 210.63333 825 208.4972 823.77844 207.35938 822.64062 C 206.22156 821.50281 205 819.36667 205 814 L 205 521 A 12 12 0 0 0 193 509 z M 494.89648 580 L 501 580 L 501 615 L 426 615 C 419.33333 615 418 613.18182 418 608 C 418 605.04545 418.80376 603.57232 419.64453 602.69922 C 420.4853 601.82611 421.66667 601 425 601 L 487 601 A 12 12 0 0 0 499 589 A 12 12 0 0 0 494.89648 580 z M 525 580 L 530.28711 580 A 12 12 0 0 0 526 589 A 12 12 0 0 0 538 601 L 598 601 C 602.03846 601 604.07096 602.10957 605.19727 603.1582 C 606.32357 604.20683 607 605.40909 607 608 C 607 610.59091 606.32357 611.79317 605.19727 612.8418 C 604.07096 613.89043 602.03846 615 598 615 L 525 615 L 525 580 z M 458.54883 760.01367 A 12 12 0 0 0 455.42773 760.2793 A 12 12 0 0 0 447.89258 765.53125 A 12 12 0 0 0 451.53125 782.10742 C 475.10101 797.19207 491.15824 814.32679 501.0918 836 A 12.0012 12.0012 0 0 0 522.73242 836.36719 C 533.59948 814.63307 550.80008 797.37574 571.9043 785.44727 A 12 12 0 0 0 576.44727 769.0957 A 12 12 0 0 0 560.0957 764.55273 C 541.35216 775.14691 524.93752 789.53015 512.36133 807.19727 C 500.42672 789.45593 484.26902 774.56475 464.46875 761.89258 A 12 12 0 0 0 458.54883 760.01367 z "/>
</svg>
